<svg viewBox="0 0 192 192" xmlns="http://www.w3.org/2000/svg" xmlns:xlink="http://www.w3.org/1999/xlink"><title>browser</title><defs><symbol id="a" viewBox="0 0 192 192" fill="#fff" fill-rule="evenodd"><path d="M8 44a12 12 0 0 1 12-12h152a12 12 0 0 1 12 12v104a12 12 0 0 1-12 12H20a12 12 0 0 1-12-12zm8 0a4 4 0 0 1 4-4h4v8h-8zm16-4h8v8h-8zm16 0h8v8h-8zm16 0h108a4 4 0 0 1 4 4v4H64zM16 56h160v92a4 4 0 0 1-4 4H20a4 4 0 0 1-4-4z"/></symbol></defs><use x="96" y="96" xlink:href="#a" transform="translate(-96 -96)"/></svg>