<svg viewBox="0 0 100 100" xmlns="http://www.w3.org/2000/svg" xmlns:xlink="http://www.w3.org/1999/xlink"><title>home</title><defs><g stroke="#fff" fill="none" id="a" stroke-width="4"><path d="M14.645 37.012a4 4 0 0 1 1.172-2.828L47.172 2.829a4 4 0 0 1 5.656 0l31.355 31.355a4 4 0 0 1 1.172 2.828v44.343a4 4 0 0 1-4 4h-62.71a4 4 0 0 1-4-4z"/><path stroke-linecap="round" d="M75 25V10.355"/><path d="M44 85.355V71.677a4 4 0 0 1 4-4h4a4 4 0 0 1 4 4v13.678"/></g></defs><use x="50" y="50" xlink:href="#a" transform="translate(-50 -50)"/></svg>