<svg id="Layer_1" xmlns="http://www.w3.org/2000/svg" viewBox="-503.8 337.7 200.1 167.1"><style>.st0{fill:#FFF}</style><g id="скалатория_1_"><path class="st0" d="M-486.2 457.8l-2.6 2.4c-1.3-1.3-3-2-4.9-2-3.5 0-6.2 2.6-6.2 6.5 0 3.8 2.7 6.5 6.2 6.5 1.9 0 3.7-.7 4.9-2l2.6 2.4c-1.9 2-4.5 3.3-7.5 3.3-5.6 0-10.1-4.5-10.1-10.1s4.5-10.1 10.1-10.1c3-.2 5.6 1.1 7.5 3.1zM-474.8 466.4h-3v8.2h-3.9v-19.9h3.9v7.9h2.9l5.1-7.9h4.4l-6.3 9.7 6.5 10.2h-4.4l-5.2-8.2zM-458.5 474.6h-4.3l8.2-19.9h2.3l8.1 19.9h-4.3l-1.4-3.6h-7l-1.6 3.6zm2.7-7.3h4.3l-2.1-5.4-2.2 5.4zM-437.4 474.6h-4.4l8.2-19.9h2.3l8.1 19.9h-4.3l-4.9-12.7-5 12.7zM-416.2 474.6h-4.3l8.2-19.9h2.3l8.1 19.9h-4.4l-1.4-3.6h-7l-1.5 3.6zm2.8-7.3h4.3l-2.1-5.4-2.2 5.4zM-392.1 474.6h-3.9v-16.2h-5.5v-3.7h14.8v3.7h-5.5v16.2h.1zM-364 464.7c0 5.6-4.5 10.1-10.1 10.1s-10.1-4.5-10.1-10.1 4.5-10.1 10.1-10.1c5.5-.1 10.1 4.5 10.1 10.1zm-16.4 0c0 3.8 2.7 6.5 6.2 6.5s6.2-2.6 6.2-6.5c0-3.8-2.7-6.5-6.2-6.5s-6.2 2.7-6.2 6.5zM-353.4 454.7c5.6 0 8.9 3.3 8.9 7.6 0 4.4-3.3 7.7-8.9 7.7h-2.6v4.6h-3.9v-19.9h6.5zm.3 11.7c2.5 0 4.8-1.2 4.8-4 0-2.7-2.3-4-4.8-4h-2.9v7.9h2.9v.1zM-328 474.6v-12.5l-9.4 12.5h-2.3v-19.9h3.9v12.5l9.4-12.5h2.3v19.9h-3.9zM-307.7 474.6v-4.9h-4.3l-3.1 4.9h-4.4s4.4-6.3 4.2-6.3c-2.4-1.1-3.8-3.3-3.8-6.1 0-4.2 3-7.5 8.6-7.5h6.8v19.9h-4zm-3.2-16.2c-2.6 0-4.5 1.3-4.5 3.8 0 2.7 2 3.8 4.5 3.8h3.2v-7.6h-3.2z"/></g><g id="скалодром_2_"><path class="st0" d="M-438.4 496.1l-.8.8c-.6-.6-1.4-.9-2.3-.9-1.7 0-3 1.3-3 3.1s1.3 3.1 3 3.1c.9 0 1.7-.3 2.3-.9l.8.8c-.8.9-1.9 1.4-3.2 1.4-2.4 0-4.3-1.9-4.3-4.3s1.9-4.3 4.3-4.3c1.3-.2 2.4.4 3.2 1.2zM-432.6 500.5c-.5-.7-.7-1-1.4-1h-1.1v3.6h-1.3v-8.4h1.3v3.5h1c.7 0 .9-.3 1.4-1l1.6-2.6h1.5l-1.9 3c-.5.7-.8 1-1.1 1.1.4.1.6.4 1.1 1.2l2 3.1h-1.5l-1.6-2.5zM-426.3 503.2h-1.4l3.5-8.4h.8l3.4 8.4h-1.4l-.8-1.9h-3.3l-.8 1.9zm1.2-3.1h2.4l-1.2-2.9-1.2 2.9zM-417 503.2h-1.4l3.5-8.4h.8l3.4 8.4h-1.5l-2.4-6-2.4 6zM-401.1 499c0 2.4-1.9 4.3-4.3 4.3s-4.3-1.9-4.3-4.3 1.9-4.3 4.3-4.3 4.3 2 4.3 4.3zm-7.2 0c0 1.8 1.3 3.1 3 3.1s3-1.3 3-3.1-1.3-3.1-3-3.1-3 1.3-3 3.1zM-392.3 504.8v-1.5h-6.3v1.5h-1.3V502h1.1l3-7.2h.8l2.9 7.2h1.1v2.8h-1.3zm-5.1-2.8h3.9l-1.9-4.8-2 4.8zM-386.3 494.8c2.2 0 3.7 1.3 3.7 3.2 0 1.9-1.5 3.2-3.7 3.2h-1.4v2.1h-1.3v-8.4h2.7v-.1zm.1 5.1c1.3 0 2.4-.6 2.4-1.9s-1.1-1.9-2.4-1.9h-1.5v3.9h1.5v-.1zM-372.2 499c0 2.4-1.9 4.3-4.3 4.3s-4.3-1.9-4.3-4.3 1.9-4.3 4.3-4.3 4.3 2 4.3 4.3zm-7.3 0c0 1.8 1.3 3.1 3 3.1s3-1.3 3-3.1-1.3-3.1-3-3.1-3 1.3-3 3.1zM-363 503.2v-6l-2.8 3.5-2.8-3.5v6h-1.3v-8.4h.8l3.4 4.3 3.4-4.3h.7v8.4h-1.4z"/></g><g id="sign_2_"><path class="st0" d="M-431.8 400.8s0 .1.1.1c-.1 0-.1-.1-.1-.1z"/><path class="st0" d="M-400.7 433.9c-26.5 0-48.1-21.6-48.1-48.1s21.6-48.1 48.1-48.1c17.1 0 33.1 9.2 41.7 24.1.3.4.3 1 .2 1.4-.1.5-.4.9-.9 1.2l-16 9.2c-.3.2-.6.3-.9.3-.7 0-1.3-.4-1.7-1-4.6-8-13.2-12.9-22.4-12.9-14.2 0-25.8 11.6-25.8 25.8 0 3.7.8 7.4 2.3 10.7l.2.5 7.4-4.3c.3-.2.6-.3 1-.3.6 0 1.1.3 1.5.7l3.9 5 7.8-15.5c.3-.6 1-1 1.7-1s1.4.4 1.7 1l13.1 24.3.5-.3c2.9-2.1 5.3-4.8 7.1-7.9.3-.6 1-1 1.7-1 .3 0 .7.1.9.3l16 9.2c.4.3.8.7.9 1.2s.1 1-.2 1.4c-8.6 14.8-24.6 24.1-41.7 24.1zm0-92.5c-24.4 0-44.3 19.9-44.3 44.3s19.9 44.3 44.3 44.3c15 0 28.9-7.5 37.1-20.1l.3-.4-4.7-2.7-.3.4c-.1.1-.2.3-.3.4-.1.2-.3.4-.4.6l-.3.5c-.1.2-.2.3-.4.5-.1.2-.2.3-.4.5-.7 1-1.6 1.9-2.4 2.8l-.6.6-.2.2-.4.4-.5.5c-.2.2-.3.3-.5.4-.6.6-1.3 1.1-2 1.7l-.5.4c-.2.1-.3.3-.5.4s-.7.5-.7.5l-.3.2c-2.2 1.5-4.5 2.8-6.9 3.8-.2.1-.3.1-.5.2l-.6.2-.3.1c-.4.1-.7.3-1.1.4l-.2.1c-.2.1-.4.1-.6.2-.6.2-1.2.4-1.7.5-.2.1-.4.1-.6.2-1.3.3-2.7.6-4.1.8-.2 0-.4.1-.5.1-.9.1-1.8.2-2.6.2h-2.2c-21.4 0-38.9-17.4-38.9-38.9 0-21.4 17.4-38.9 38.9-38.9h2.2c.9 0 1.8.1 2.6.2l.5.1c1.5.2 2.8.5 4.2.8.2.1.4.1.6.2.6.2 1.2.3 1.7.5.2.1.4.1.6.2l.2.1c.4.1.7.3 1.1.4l.5.2.4.2c.2.1.4.1.5.2 2.4 1 4.8 2.3 6.9 3.8 0 0 .8.6 1 .7s.3.3.5.4l.5.4c.7.6 1.4 1.1 2 1.7.2.1.3.3.5.4l.3.3.2.2c.2.1.3.3.4.4.2.1.3.3.4.4s.2.2.3.4c.9.9 1.7 1.9 2.4 2.8.1.2.2.3.4.5.1.2.2.3.4.5l.3.5c.1.2.3.4.4.6l.5.8 4.7-2.7-.3-.4c-8.1-12.7-22-20.2-37-20.2zm-26.4 67.5c.2.2.4.4.5.6l.1.1c.2.2.4.4.5.6 0 .1.1.1.2.2l.5.5.3.3.2.2c.2.2.5.5.8.7.2.2.4.3.6.5.2.1.3.3.5.4l.3.3.3.3c.1.1.5.4.5.4.2.2.5.3.7.5.3.2.6.4.8.6l.2.1c.2.1.4.3.6.4.1.1.2.1.3.2.2.2.5.3.8.5s.6.3.9.5l.5.3c.5.2.9.5 1.4.7.2.1.5.2.8.3.2.1.5.2.8.3.3.1.6.2.8.3.1 0 .1 0 .2.1.1 0 .3.1.4.2.4.1.8.3 1.2.4.1 0 .2.1.4.1 1.6.5 3.3.9 5 1.2.3 0 .5.1.8.1l.6.1h.5c.2 0 .8.1.9.1h4.8c.4 0 .8-.1 1.2-.1.2 0 .3 0 .5-.1.2 0 .4-.1.7-.1l.6-.1.5-.1 1.8-.3c.3-.1.6-.1.9-.2.8-.2 1.5-.4 2.1-.6.1 0 .2-.1.3-.1.2-.1.3-.1.4-.1.2-.1.3-.1.5-.2.4-.1.7-.3 1.1-.4.2-.1.4-.1.5-.2.7-.3 1.3-.6 2-.9l.5-.2-2.6-4.8-.4.2c-4 1.9-8.5 3-12.9 3-.6 0-1.1-.3-1.5-.7l-13.9-17.8-13.9 8 .8 1.2.3.3c.1.2.3.4.5.6l.1.1c.2.2.4.5.5.7l.1.1c.2.2.4.4.5.6v.3l.1-.2zm50.8-6.3c-2 2.9-4.5 5.4-7.4 7.5l-.4.3 2.6 4.8.5-.3c.5-.3.9-.6 1.4-1l.8-.6c.2-.2.4-.4.7-.5h.1l.1-.2c.3-.2.5-.4.8-.7l.1-.1c.2-.2.5-.4.7-.7.3-.2.5-.5.8-.7l.6-.6.2-.2.6-.6.3-.3c.2-.2.3-.4.5-.6l.1-.2c.2-.2.6-.8.6-.8.2-.3.4-.5.6-.8s.4-.6.6-.8l.3-.4-.4-.3-4.3-2.5-.5.3zm-31.4-1.1l7.9 10.1h.3c3.4-.2 6.7-1 9.9-2.5l.5-.2-11.5-21.2-7.1 13.8zm7-50.8c-19.3 0-35.1 15.7-35.1 35.1v2.2c0 .2 0 .5.1.7v.4c0 .2 0 .5.1.8 0 0 .1.6.1.7s0 .3.1.4c.1.4.1.6.1.9s.1.5.1.8c.1.4.1.7.2 1.1.1.3.1.5.2.7 0 .1 0 .1.1.2 0 .1.1.3.1.4 0 .2.1.4.2.5 0 .1.2.7.3.9 0 .1.1.2.1.4.1.2.2.5.3.7l.1.2c.1.2.1.3.2.5 0 .1.1.2.1.4.1.3.2.5.3.8.1.3.2.6.4.9.1.2.2.5.3.7l.1.3.4.1h.1l4.4-2.5-.2-.4c-1.9-3.9-2.9-8.3-2.9-12.7 0-16.3 13.3-29.6 29.6-29.6 9.7 0 18.9 4.8 24.4 12.8l.3.4 4.7-2.7-.3-.5-.1-.1c-.2-.3-.4-.5-.6-.8s-.4-.5-.6-.8l-.1-.1c-.2-.2-.4-.5-.6-.7l-.1-.2c-.2-.2-.3-.4-.5-.6l-.2-.2c-.2-.3-.4-.5-.6-.7l-.2-.2-.6-.6-.8-.8-.7-.7-.1-.1c-.2-.2-.5-.4-.7-.6l-.1-.2h-.1c-.2-.2-.4-.4-.7-.5l-.8-.6c-.5-.4-1.1-.8-1.6-1.2l-.4-.3-.6-.4c-.1-.1-.2-.1-.3-.2-.3-.2-.5-.3-.8-.5-.2-.1-.4-.2-.6-.4-1-.6-2.1-1.1-3.2-1.5-.2-.1-.4-.1-.5-.2-.4-.1-.7-.3-1.1-.4-.2-.1-.3-.1-.5-.2-.1 0-.2-.1-.4-.1-.1 0-.2-.1-.3-.1-.2-.1-.4-.1-.6-.2-.1 0-.3-.1-.4-.1-.4-.1-.7-.2-1-.3-.3-.1-.7-.2-1-.2l-1.8-.3c-.2 0-.6-.1-.6-.1l-.4-.1c-.3 0-.5-.1-.7-.1s-.3 0-.5-.1c-.4 0-.8-.1-1.1-.1h-.6H-400.7z"/></g></svg>