<svg id="Layer_1" xmlns="http://www.w3.org/2000/svg" viewBox="221.3 381.2 200 167.6"><style>.st0{fill:#2d2926}.st1{fill:#414042}</style><g id="balck"><g id="Скалатория_1_"><path class="st0" d="M238.9 501.8l-2.6 2.4c-1.3-1.3-3-2-4.9-2-3.5 0-6.2 2.6-6.2 6.5 0 3.8 2.7 6.5 6.2 6.5 1.9 0 3.7-.7 4.9-2l2.6 2.4c-1.9 2-4.5 3.3-7.5 3.3-5.6 0-10.1-4.5-10.1-10.1s4.5-10.1 10.1-10.1c2.9-.2 5.6 1.1 7.5 3.1zM250.3 510.4h-3v8.2h-3.9v-19.9h3.9v7.9h2.9l5.1-7.9h4.4l-6.3 9.7 6.5 10.2h-4.4l-5.2-8.2zM266.5 518.6h-4.3l8.2-19.9h2.3l8.1 19.9h-4.3L275 515h-7l-1.5 3.6zm2.8-7.4h4.3l-2.1-5.4-2.2 5.4zM287.7 518.6h-4.3l8.2-19.9h2.3l8.1 19.9h-4.3l-4.9-12.7-5.1 12.7zM308.9 518.6h-4.3l8.2-19.9h2.3l8.1 19.9h-4.3l-1.4-3.6h-7l-1.6 3.6zm2.8-7.4h4.3l-2.1-5.4-2.2 5.4zM333 518.6h-3.9v-16.2h-5.5v-3.7h14.8v3.7H333v16.2zM361 508.6c0 5.6-4.5 10.1-10.1 10.1s-10.1-4.5-10.1-10.1 4.5-10.1 10.1-10.1S361 503 361 508.6zm-16.3 0c0 3.8 2.7 6.5 6.2 6.5s6.2-2.6 6.2-6.5c0-3.8-2.7-6.5-6.2-6.5-3.5.1-6.2 2.7-6.2 6.5zM371.6 498.7c5.6 0 8.9 3.3 8.9 7.6 0 4.4-3.3 7.7-8.9 7.7H369v4.6h-3.9v-19.9h6.5zm.4 11.6c2.5 0 4.8-1.2 4.8-4 0-2.7-2.3-4-4.8-4h-3v7.9h3v.1zM397.1 518.6v-12.5l-9.4 12.5h-2.3v-19.9h3.9v12.5l9.4-12.5h2.3v19.9h-3.9zM417.3 518.6v-4.9H413l-3.1 4.9h-4.4s4.4-6.3 4.2-6.3c-2.4-1.1-3.8-3.3-3.8-6.1 0-4.2 3-7.5 8.6-7.5h6.8v19.9h-4zm-3.2-16.2c-2.6 0-4.5 1.3-4.5 3.8 0 2.7 2 3.8 4.5 3.8h3.2v-7.6h-3.2z"/></g><g id="скалодром_1_"><path class="st0" d="M286.6 540.1l-.8.8c-.6-.6-1.4-.9-2.3-.9-1.7 0-3 1.3-3 3.1s1.3 3.1 3 3.1c.9 0 1.7-.3 2.3-.9l.8.8c-.8.9-1.9 1.4-3.2 1.4-2.4 0-4.3-1.9-4.3-4.3s1.9-4.3 4.3-4.3c1.3-.2 2.5.3 3.2 1.2zM292.5 544.5c-.5-.7-.7-1-1.4-1H290v3.6h-1.3v-8.4h1.3v3.5h1c.7 0 .9-.3 1.4-1l1.6-2.6h1.5l-1.9 3c-.5.7-.8 1-1.1 1.1.4.1.6.4 1.1 1.2l2 3.1h-1.5l-1.6-2.5zM298.8 547.2h-1.4l3.5-8.4h.8l3.4 8.4h-1.4l-.8-1.9h-3.3l-.8 1.9zm1.2-3.1h2.4l-1.2-2.9-1.2 2.9zM308.1 547.2h-1.4l3.5-8.4h.8l3.4 8.4H313l-2.4-6-2.5 6zM324 543c0 2.4-1.9 4.3-4.3 4.3s-4.3-1.9-4.3-4.3 1.9-4.3 4.3-4.3 4.3 1.9 4.3 4.3zm-7.3 0c0 1.8 1.3 3.1 3 3.1s3-1.3 3-3.1-1.3-3.1-3-3.1-3 1.3-3 3.1zM332.7 548.7v-1.5h-6.3v1.5h-1.3V546h1.1l3-7.2h.8l2.9 7.2h1.1v2.8l-1.3-.1zm-5-2.7h3.9l-1.9-4.8-2 4.8zM338.8 538.8c2.2 0 3.7 1.3 3.7 3.2s-1.5 3.2-3.7 3.2h-1.4v2.1H336v-8.4l2.8-.1zm0 5.1c1.3 0 2.4-.6 2.4-1.9 0-1.3-1.1-1.9-2.4-1.9h-1.5v3.9l1.5-.1zM352.9 543c0 2.4-1.9 4.3-4.3 4.3s-4.3-1.9-4.3-4.3 1.9-4.3 4.3-4.3c2.3 0 4.3 1.9 4.3 4.3zm-7.3 0c0 1.8 1.3 3.1 3 3.1s3-1.3 3-3.1-1.3-3.1-3-3.1-3 1.3-3 3.1zM362 547.2v-6l-2.8 3.5-2.8-3.5v6h-1.3v-8.4h.8l3.4 4.3 3.4-4.3h.7v8.4H362z"/></g><g id="sign_1_"><path class="st1" d="M293.2 444.7s0 .1.1.1l-.1-.1z"/><path class="st0" d="M365.6 450.7l-8-4.6-8-4.6c-1.1-.7-2.6-.3-3.3.9-1.8 3.1-4.2 5.7-7 7.8l-12.8-23.8c-.4-.8-1.3-1.3-2.1-1.3-.9 0-1.7.5-2.1 1.3l-7.5 14.8-3.4-4.4c-.7-.9-2.1-1.2-3.1-.6l-6.9 4c-1.5-3.3-2.3-6.9-2.3-10.5 0-14 11.4-25.3 25.3-25.3 9 0 17.4 4.9 21.9 12.7.7 1.2 2.1 1.5 3.3.9l8-4.6 8-4.6c.6-.3 1-.8 1.1-1.5.2-.6.1-1.3-.2-1.8-8.7-15-24.8-24.3-42.1-24.3-26.8 0-48.6 21.8-48.6 48.6s21.8 48.6 48.6 48.6c17.3 0 33.4-9.3 42.1-24.3.3-.6.4-1.2.2-1.8-.2-.7-.6-1.2-1.1-1.6zm-16.4-3.9l3.9 2.2v.1c-.2.3-.4.6-.6.8-.2.3-.4.5-.6.8 0 0 0 .1-.1.1-.2.2-.4.5-.6.7 0 .1-.1.1-.1.2-.2.2-.3.4-.5.6-.1.1-.1.2-.2.2l-.6.6-.2.2c-.2.2-.4.4-.5.6-.2.3-.5.5-.8.7-.2.2-.5.4-.7.7l-.1.1c-.3.2-.5.5-.8.7-.3.2-.5.4-.8.6 0 0-.1 0-.1.1-.2.2-.5.4-.7.5-.4.3-.9.7-1.4 1l-2.1-3.9c2.9-2 5.5-4.6 7.6-7.6zm-24.8-14.1l10.8 19.9c-3 1.4-6.3 2.3-9.7 2.4l-7.5-9.6 6.4-12.7zm-15.6 8.8l13.7 17.5c.5.6 1.2.9 1.9.9 4.6 0 9.1-1.1 13.1-3l2.1 3.9c-.6.3-1.3.6-2 .9-.2.1-.3.1-.5.2-.4.1-.7.3-1.1.4-.2.1-.3.1-.5.2-.1 0-.2.1-.4.1-.1 0-.2.1-.3.1-.7.2-1.3.4-2 .6-.3.1-.7.2-1 .2-.6.1-1.2.2-1.7.3-.2 0-.4.1-.5.1h-.1c-.2 0-.3 0-.5.1-.2 0-.4.1-.6.1s-.3 0-.5.1c-.4 0-.8.1-1.1.1H320.7c-.2 0-.4 0-.6-.1-.3 0-.5-.1-.8-.1-1.7-.3-3.4-.6-5-1.1-.1 0-.2-.1-.4-.1-.4-.1-.8-.3-1.2-.4-.1 0-.3-.1-.4-.2-.1 0-.1 0-.2-.1-.3-.1-.6-.2-.8-.3-.3-.1-.5-.2-.8-.3-.2-.1-.5-.2-.7-.3-.5-.2-.9-.4-1.4-.7-.2-.1-.3-.2-.5-.3-.3-.2-.6-.3-.9-.5-.3-.1-.5-.3-.8-.5-.1-.1-.2-.1-.3-.2-.2-.1-.4-.3-.6-.4-.1 0-.1-.1-.2-.1-.3-.2-.5-.4-.8-.6-.2-.2-.5-.3-.7-.5-.2-.1-.3-.2-.5-.4l-.3-.3-.3-.3c-.2-.1-.3-.3-.5-.4-.2-.2-.4-.3-.6-.5-.3-.2-.5-.5-.8-.7l-.2-.2-.3-.3-.4-.4-.2-.2-.6-.6-.1-.1c-.2-.2-.5-.5-.7-.8-.2-.2-.4-.5-.6-.8l-.1-.1c-.2-.2-.4-.4-.5-.7 0 0 0-.1-.1-.1-.2-.2-.3-.4-.4-.6-.1-.1-.2-.2-.2-.3-.2-.2-.3-.5-.5-.7l13.1-7.5zm40.4-28.9c-5.6-8.1-14.9-13-24.8-13-16.6 0-30.1 13.5-30.1 30.1 0 4.5 1 8.9 2.9 12.9l-3.8 2.2s0-.1-.1-.1c-.1-.2-.2-.5-.3-.7-.1-.3-.3-.6-.4-.9s-.2-.5-.3-.8c0-.1-.1-.2-.1-.4-.1-.2-.2-.4-.2-.7v-.1c-.1-.2-.2-.5-.3-.7 0-.1-.1-.2-.1-.3-.1-.2-.1-.4-.2-.6 0-.1-.1-.2-.1-.3-.1-.2-.1-.4-.2-.5 0-.1-.1-.3-.1-.5 0-.1 0-.1-.1-.2-.1-.2-.1-.4-.2-.7-.1-.3-.2-.7-.2-1-.1-.3-.1-.5-.1-.8s-.1-.5-.1-.8c0-.2-.1-.4-.1-.5 0-.2-.1-.4-.1-.6v-.1c0-.2-.1-.5-.1-.8v-.4c0-.2 0-.5-.1-.7v-.2-.8-1.2c0-19.1 15.5-34.6 34.6-34.6h2.3c.4 0 .8.1 1.1.1.2 0 .3 0 .5.1.2 0 .4.1.6.1s.3 0 .5.1h.1c.2 0 .4.1.5.1.6.1 1.2.2 1.7.3.3.1.7.2 1 .2.3.1.7.2 1 .3.1 0 .3.1.4.1.2.1.4.1.6.2.1 0 .2.1.3.1.1 0 .2.1.4.1.2.1.3.1.5.2.4.1.7.3 1.1.4.2.1.3.1.5.2 1.1.5 2.1 1 3.2 1.5l.6.3c.3.1.5.3.8.5.1.1.3.2.4.2.2.1.3.2.5.3.1.1.3.2.4.3.5.4 1.1.7 1.6 1.1.2.2.5.4.7.5 0 0 .1 0 .1.1.3.2.5.4.8.6.3.2.5.5.8.7l.1.1c.2.2.5.4.7.7.3.2.5.5.8.7.2.2.4.4.5.6l.2.2.6.6c.1.1.1.2.2.2.2.2.3.4.5.6 0 .1.1.1.1.2.2.2.4.5.6.7 0 0 0 .1.1.1.2.3.4.5.6.8s.4.5.6.8v.1l-3.9 2.7zm-24.8 60.9c-24.2 0-43.8-19.7-43.8-43.8 0-24.2 19.7-43.8 43.8-43.8 14.8 0 28.6 7.5 36.7 19.9l-3.8 2.2c-.1-.1-.2-.3-.3-.4-.1-.2-.3-.4-.4-.6s-.2-.3-.3-.5c-.1-.2-.2-.3-.4-.5-.1-.2-.2-.3-.4-.5-.8-1-1.6-1.9-2.4-2.8-.1-.1-.2-.3-.4-.4l-.4-.4-.4-.4-.2-.2-.3-.3c-.2-.1-.3-.3-.5-.4-.6-.6-1.3-1.1-2-1.7-.2-.1-.3-.2-.5-.4-.2-.1-.3-.3-.5-.4s-.3-.3-.5-.4-.3-.2-.5-.4c-2.2-1.5-4.6-2.8-7-3.9-.2-.1-.4-.2-.5-.2-.1-.1-.3-.1-.4-.2-.2-.1-.4-.1-.5-.2-.4-.1-.7-.3-1.1-.4-.1 0-.2-.1-.2-.1-.2-.1-.4-.1-.6-.2-.6-.2-1.2-.4-1.8-.5-.2-.1-.4-.1-.6-.2-1.4-.3-2.8-.6-4.2-.8-.2 0-.4-.1-.6-.1-.9-.1-1.8-.2-2.7-.2h-2.3c-21.7 0-39.4 17.7-39.4 39.4s17.7 39.4 39.4 39.4h2.3c.9 0 1.8-.1 2.7-.2.2 0 .4 0 .6-.1 1.4-.2 2.8-.5 4.2-.8.2-.1.4-.1.6-.2.6-.2 1.2-.3 1.8-.5.2-.1.4-.1.6-.2.1 0 .2-.1.2-.1.4-.1.7-.3 1.1-.4.2-.1.4-.1.5-.2s.3-.1.4-.2c.2-.1.4-.1.5-.2 2.5-1 4.8-2.3 7-3.9.2-.1.3-.2.5-.4.2-.1.3-.2.5-.4.2-.1.3-.3.5-.4s.3-.2.5-.4c.7-.5 1.3-1.1 2-1.7.2-.1.3-.3.5-.4l.3-.3.2-.2.4-.4.2-.2.6-.6c.9-.9 1.7-1.8 2.4-2.8.1-.2.3-.3.4-.5s.2-.3.4-.5c.1-.2.2-.3.3-.5.1-.2.3-.4.4-.6.1-.1.2-.3.3-.4l3.8 2.2c-8.1 12.4-22 19.9-36.7 19.9z"/></g></g></svg>