<svg id="Layer_1" xmlns="http://www.w3.org/2000/svg" viewBox="197.7 337 200.1 167.5"><style>.st0{fill:#2d2926}.st1{fill:#68c8c6}.st2{fill:#414042}.st3{fill:#FFF}.st4{fill:#a4a7a9}.st5{fill:#CCC}</style><g id="color"><g id="Скалатория"><path class="st0" d="M215.3 457.5l-2.6 2.4c-1.3-1.3-3-2-4.9-2-3.5 0-6.2 2.6-6.2 6.5 0 3.8 2.7 6.5 6.2 6.5 1.9 0 3.7-.7 4.9-2l2.6 2.4c-1.9 2-4.5 3.3-7.5 3.3-5.6 0-10.1-4.5-10.1-10.1s4.5-10.1 10.1-10.1c3-.2 5.7 1.1 7.5 3.1zM226.7 466.2h-3v8.2h-3.9v-19.9h3.9v7.9h2.9l5.1-7.9h4.4l-6.3 9.7 6.5 10.2h-4.4l-5.2-8.2zM243 474.3h-4.3l8.2-19.9h2.3l8.1 19.9H253l-1.4-3.6h-7l-1.6 3.6zm2.8-7.3h4.3l-2.1-5.4-2.2 5.4zM264.2 474.3h-4.3l8.2-19.9h2.3l8.1 19.9H274l-4.9-12.7-4.9 12.7zM285.3 474.3H281l8.2-19.9h2.3l8.1 19.9h-4.3l-1.4-3.6h-7l-1.6 3.6zm2.8-7.3h4.3l-2.1-5.4-2.2 5.4zM309.4 474.3h-3.9v-16.2H300v-3.7h14.8v3.7h-5.5v16.2h.1zM337.5 464.4c0 5.6-4.5 10.1-10.1 10.1s-10.1-4.5-10.1-10.1 4.5-10.1 10.1-10.1c5.5-.1 10.1 4.5 10.1 10.1zm-16.4 0c0 3.8 2.7 6.5 6.2 6.5s6.2-2.6 6.2-6.5c0-3.8-2.7-6.5-6.2-6.5s-6.2 2.7-6.2 6.5zM348.1 454.4c5.6 0 8.9 3.3 8.9 7.6 0 4.4-3.3 7.7-8.9 7.7h-2.6v4.6h-3.9v-19.9h6.5zm.3 11.7c2.5 0 4.8-1.2 4.8-4 0-2.7-2.3-4-4.8-4h-2.9v7.9h2.9v.1zM373.5 474.3v-12.5l-9.4 12.5h-2.3v-19.9h3.9V467l9.4-12.5h2.3v19.9h-3.9v-.1zM393.8 474.3v-4.9h-4.3l-3.1 4.9H382s4.4-6.3 4.2-6.3c-2.4-1.1-3.8-3.3-3.8-6.1 0-4.2 3-7.5 8.6-7.5h6.8v19.9h-4zm-3.2-16.2c-2.6 0-4.5 1.3-4.5 3.8 0 2.7 2 3.8 4.5 3.8h3.2v-7.6h-3.2z"/></g><g id="скалодром"><path class="st0" d="M263.1 495.8l-.8.8c-.6-.6-1.4-.9-2.3-.9-1.7 0-3 1.3-3 3.1s1.3 3.1 3 3.1c.9 0 1.7-.3 2.3-.9l.8.8c-.8.9-1.9 1.4-3.2 1.4-2.4 0-4.3-1.9-4.3-4.3s1.9-4.3 4.3-4.3c1.3-.2 2.4.4 3.2 1.2zM268.9 500.2c-.5-.7-.7-1-1.4-1h-1.1v3.6h-1.3v-8.4h1.3v3.5h1c.7 0 .9-.3 1.4-1l1.6-2.6h1.5l-1.9 3c-.5.7-.8 1-1.1 1.1.4.1.6.4 1.1 1.2l2 3.1h-1.5l-1.6-2.5zM275.2 502.9h-1.4l3.5-8.4h.8l3.4 8.4H280l-.8-1.9H276l-.8 1.9zm1.2-3.1h2.4l-1.2-2.9-1.2 2.9zM284.5 502.9h-1.4l3.5-8.4h.8l3.4 8.4h-1.4l-2.4-6-2.5 6zM300.4 498.7c0 2.4-1.9 4.3-4.3 4.3s-4.3-1.9-4.3-4.3 1.9-4.3 4.3-4.3 4.3 2 4.3 4.3zm-7.2 0c0 1.8 1.3 3.1 3 3.1s3-1.3 3-3.1-1.3-3.1-3-3.1c-1.7.1-3 1.4-3 3.1zM309.2 504.5V503h-6.3v1.5h-1.3v-2.8h1.1l3-7.2h.8l2.9 7.2h1.1v2.8h-1.3zm-5.1-2.8h3.9l-1.9-4.8-2 4.8zM315.2 494.5c2.2 0 3.7 1.3 3.7 3.2 0 1.9-1.5 3.2-3.7 3.2h-1.4v2.1h-1.3v-8.4h2.7v-.1zm.1 5.1c1.3 0 2.4-.6 2.4-1.9s-1.1-1.9-2.4-1.9h-1.5v3.9h1.5v-.1zM329.3 498.7c0 2.4-1.9 4.3-4.3 4.3s-4.3-1.9-4.3-4.3 1.9-4.3 4.3-4.3 4.3 2 4.3 4.3zm-7.3 0c0 1.8 1.3 3.1 3 3.1s3-1.3 3-3.1-1.3-3.1-3-3.1c-1.6.1-3 1.4-3 3.1zM338.5 502.9v-6l-2.8 3.5-2.8-3.5v6h-1.3v-8.4h.8l3.4 4.3 3.4-4.3h.7v8.4h-1.4z"/></g><g id="sign"><path class="st1" d="M300.8 430.3c-24.7 0-44.8-20.1-44.8-44.8 0-24.7 20.1-44.8 44.8-44.8 15.2 0 29.2 7.6 37.5 20.3l.6.9-5.6 3.2-.5-.8-.3-.4c-.2-.2-.3-.4-.4-.6l-.4-.5c-.1-.2-.2-.3-.3-.5-.1-.2-.2-.3-.4-.5-.7-.9-1.5-1.9-2.4-2.8l-.1-.1-.3-.3-.8-.8-.5-.5c-.2-.2-.3-.3-.5-.4-.6-.6-1.3-1.1-2-1.6l-.5-.3c-.2-.1-.3-.3-.5-.4s-1-.7-1-.7c-2.2-1.5-4.5-2.8-6.9-3.8-.2-.1-.8-.3-.8-.3l-.5-.2c-.4-.2-.8-.3-1.1-.4 0 0-.6-.2-.8-.3-.6-.2-1.2-.4-1.7-.5-.2-.1-.4-.1-.6-.2-1.3-.3-2.7-.6-4.1-.8l-.5-.1c-.9-.1-1.8-.2-2.6-.2h-2.2c-21.2 0-38.4 17.2-38.4 38.4s17.2 38.4 38.4 38.4h2.2c.9 0 1.7-.1 2.6-.2l.5-.1c1.4-.2 2.8-.5 4.1-.8l.6-.2c.6-.2 1.2-.3 1.7-.5.2-.1.4-.1.5-.2l.3-.1c.3-.1.7-.2 1-.4l.5-.2s.7-.3.9-.4c2.4-1 4.7-2.3 6.8-3.8 0 0 .9-.6 1-.7.2-.1.3-.2.5-.4l.5-.4c.7-.6 1.4-1.1 2-1.6.2-.2.3-.3.5-.4l.5-.5.4-.4.2-.2.6-.6c.9-.9 1.7-1.8 2.4-2.8.1-.2.2-.3.4-.5.1-.2.2-.3.4-.5l.3-.4c.2-.3.3-.4.4-.6l.8-1.2 5.6 3.2-.6.9c-8.2 12.8-22.2 20.4-37.4 20.4z"/><path class="st2" d="M269.7 400.5s0 .1.1.1c-.1 0-.1-.1-.1-.1z"/><path class="st0" d="M342 406.5l-8-4.6-8-4.6c-1.1-.7-2.6-.3-3.3.9-1.8 3.1-4.2 5.7-7 7.8l-12.8-23.8c-.4-.8-1.3-1.3-2.1-1.3-.9 0-1.7.5-2.1 1.3l-7.5 14.8-3.4-4.4c-.7-.9-2.1-1.2-3.1-.6l-6.9 4c-1.5-3.3-2.3-6.9-2.3-10.5 0-14 11.4-25.3 25.3-25.3 9 0 17.4 4.9 21.9 12.7.7 1.1 2.1 1.5 3.3.9l8-4.6 8-4.6c.6-.3 1-.8 1.1-1.5.2-.6.1-1.3-.2-1.8-8.7-15-24.8-24.3-42.1-24.3-26.8 0-48.6 21.8-48.6 48.6s21.8 48.6 48.6 48.6c17.3 0 33.4-9.3 42.1-24.3.3-.6.4-1.2.2-1.8-.1-.8-.5-1.3-1.1-1.6zm-16.4-3.9l3.9 2.2v.1c-.2.3-.4.6-.6.8-.2.3-.4.5-.6.8 0 0 0 .1-.1.1-.2.2-.4.5-.6.7 0 .1-.1.1-.1.2-.2.2-.3.4-.5.6-.1.1-.1.2-.2.2l-.6.6-.2.2c-.2.2-.4.4-.5.6-.2.3-.5.5-.8.7-.2.2-.5.4-.7.7l-.1.1c-.3.2-.5.5-.8.7-.3.2-.5.4-.8.6 0 0-.1 0-.1.1-.2.2-.5.4-.7.5-.4.3-.9.7-1.4 1l-2.1-3.9c3-2.1 5.5-4.7 7.6-7.6zm-24.7-14.2l10.8 19.9c-3 1.4-6.3 2.3-9.7 2.4l-7.5-9.6 6.4-12.7zm-15.7 8.8l13.7 17.5c.5.6 1.2.9 1.9.9 4.6 0 9.1-1.1 13.1-3l2.1 3.9c-.6.3-1.3.6-2 .9-.2.1-.3.1-.5.2-.4.1-.7.3-1.1.4-.2.1-.3.1-.5.2-.1 0-.2.1-.4.1-.1 0-.2.1-.3.1-.7.2-1.3.4-2 .6-.3.1-.7.2-1 .2-.6.1-1.2.2-1.7.3-.2 0-.4.1-.5.1h-.1c-.2 0-.3 0-.5.1-.2 0-.4.1-.6.1s-.3 0-.5.1c-.4 0-.8.1-1.1.1H297.1c-.2 0-.4 0-.6-.1-.3 0-.5-.1-.8-.1-1.7-.3-3.4-.6-5-1.1-.1 0-.2-.1-.4-.1-.4-.1-.8-.3-1.2-.4-.1 0-.3-.1-.4-.2-.1 0-.1 0-.2-.1-.3-.1-.6-.2-.8-.3-.3-.1-.5-.2-.8-.3-.2-.1-.5-.2-.7-.3-.5-.2-.9-.4-1.4-.7-.2-.1-.3-.2-.5-.3-.3-.2-.6-.3-.9-.5-.3-.1-.5-.3-.8-.5-.1-.1-.2-.1-.3-.2-.2-.1-.4-.3-.6-.4-.1 0-.1-.1-.2-.1-.3-.2-.5-.4-.8-.6-.2-.2-.5-.3-.7-.5-.2-.1-.3-.2-.5-.4l-.3-.3-.3-.3c-.2-.1-.3-.3-.5-.4-.2-.2-.4-.3-.6-.5-.3-.2-.5-.5-.8-.7l-.2-.2-.3-.3-.4-.4-.2-.2-.6-.6-.1-.1c-.2-.2-.5-.5-.7-.8-.2-.2-.4-.5-.6-.8l-.1-.1c-.2-.2-.4-.4-.5-.7 0 0 0-.1-.1-.1-.2-.2-.3-.4-.4-.6-.1-.1-.2-.2-.2-.3-.2-.2-.3-.5-.5-.7l13.1-7.5zm40.4-28.8c-5.6-8.1-14.9-13-24.8-13-16.6 0-30.1 13.5-30.1 30.1 0 4.5 1 8.9 2.9 12.9l-3.8 2.2s0-.1-.1-.1c-.1-.2-.2-.5-.3-.7-.1-.3-.3-.6-.4-.9s-.2-.5-.3-.8c0-.1-.1-.2-.1-.4-.1-.2-.2-.4-.2-.7v-.1c-.1-.2-.2-.5-.3-.7 0-.1-.1-.2-.1-.3-.1-.2-.1-.4-.2-.6 0-.1-.1-.2-.1-.3-.1-.2-.1-.4-.2-.5 0-.1-.1-.3-.1-.5 0-.1 0-.1-.1-.2-.1-.2-.1-.4-.2-.7-.1-.3-.2-.7-.2-1-.1-.3-.1-.5-.1-.8s-.1-.5-.1-.8c0-.2-.1-.4-.1-.5 0-.2-.1-.4-.1-.6v-.1c0-.2-.1-.5-.1-.8v-.4c0-.2 0-.5-.1-.7v-.2-.8-1.2c0-19.1 15.5-34.6 34.6-34.6h2.3c.4 0 .8.1 1.1.1.2 0 .3 0 .5.1.2 0 .4.1.6.1s.3 0 .5.1h.1c.2 0 .4.1.5.1.6.1 1.2.2 1.7.3.3.1.7.2 1 .2.3.1.7.2 1 .3.1 0 .3.1.4.1.2.1.4.1.6.2.1 0 .2.1.3.1.1 0 .2.1.4.1.2.1.3.1.5.2.4.1.7.3 1.1.4.2.1.3.1.5.2 1.1.5 2.1 1 3.2 1.5l.6.3c.3.1.5.3.8.5.1.1.3.2.4.2.2.1.3.2.5.3.1.1.3.2.4.3.5.4 1.1.7 1.6 1.1.2.2.5.4.7.5 0 0 .1 0 .1.1.3.2.5.4.8.6.3.2.5.5.8.7l.1.1c.2.2.5.4.7.7.3.2.5.5.8.7.2.2.4.4.5.6l.2.2.6.6c.1.1.1.2.2.2.2.2.3.4.5.6 0 .1.1.1.1.2.2.2.4.5.6.7 0 0 0 .1.1.1.2.3.4.5.6.8s.4.5.6.8v.1l-3.9 2.7zm-24.8 60.9c-24.2 0-43.8-19.7-43.8-43.8s19.7-43.8 43.8-43.8c14.8 0 28.6 7.5 36.7 19.9l-3.8 2.2c-.1-.1-.2-.3-.3-.4-.1-.2-.3-.4-.4-.6s-.2-.3-.3-.5c-.1-.2-.2-.3-.4-.5-.1-.2-.2-.3-.4-.5-.8-1-1.6-1.9-2.4-2.8-.1-.1-.2-.3-.4-.4l-.4-.4-.4-.4-.2-.2-.3-.3c-.2-.1-.3-.3-.5-.4-.6-.6-1.3-1.1-2-1.7-.2-.1-.3-.2-.5-.4-.2-.1-.3-.3-.5-.4s-.3-.3-.5-.4-.3-.2-.5-.4c-2.2-1.5-4.6-2.8-7-3.9-.2-.1-.4-.2-.5-.2-.1-.1-.3-.1-.4-.2-.2-.1-.4-.1-.5-.2-.4-.1-.7-.3-1.1-.4-.1 0-.2-.1-.2-.1-.2-.1-.4-.1-.6-.2-.6-.2-1.2-.4-1.8-.5-.2-.1-.4-.1-.6-.2-1.4-.3-2.8-.6-4.2-.8-.2 0-.4-.1-.6-.1-.9-.1-1.8-.2-2.7-.2h-2.3c-21.7 0-39.4 17.7-39.4 39.4s17.7 39.4 39.4 39.4h2.3c.9 0 1.8-.1 2.7-.2.2 0 .4 0 .6-.1 1.4-.2 2.8-.5 4.2-.8.2-.1.4-.1.6-.2.6-.2 1.2-.3 1.8-.5.2-.1.4-.1.6-.2.1 0 .2-.1.2-.1.4-.1.7-.3 1.1-.4.2-.1.4-.1.5-.2s.3-.1.4-.2c.2-.1.4-.1.5-.2 2.5-1 4.8-2.3 7-3.9.2-.1.3-.2.5-.4.2-.1.3-.2.5-.4.2-.1.3-.3.5-.4s.3-.2.5-.4c.7-.5 1.3-1.1 2-1.7.2-.1.3-.3.5-.4l.3-.3.2-.2.4-.4.2-.2.6-.6c.9-.9 1.7-1.8 2.4-2.8.1-.2.3-.3.4-.5s.2-.3.4-.5c.1-.2.2-.3.3-.5.1-.2.3-.4.4-.6.1-.1.2-.3.3-.4l3.8 2.2c-8.1 12.3-21.9 19.9-36.7 19.9z"/><path class="st3" d="M311.6 408.3c-3 1.4-6.3 2.3-9.7 2.4l-7.5-9.6 6.4-12.7 10.8 19.9z"/><path class="st4" d="M329.5 404.8s-.1 0 0 0l-.6.9c-.2.3-.4.5-.6.8 0 0 0 .1-.1.1-.2.2-.4.5-.6.7 0 .1-.1.1-.1.2-.2.2-.3.4-.5.6-.1.1-.1.2-.2.2l-.6.6-.2.2c-.2.2-.4.4-.5.6-.2.3-.5.5-.8.7-.2.2-.5.4-.7.7l-.1.1c-.3.2-.5.5-.8.7-.3.2-.5.4-.8.6 0 0-.1 0-.1.1-.2.2-.5.4-.7.5-.4.3-.9.7-1.4 1l-2.1-3.9c2.9-2 5.5-4.6 7.6-7.6l3.9 2.2z"/><path class="st5" d="M316 416.5c-.6.3-1.3.6-2 .9-.2.1-.3.1-.5.2-.4.1-.7.3-1.1.4-.2.1-.3.1-.5.2-.1 0-.2.1-.4.1-.1 0-.2.1-.3.1-.7.2-1.3.4-2 .6-.3.1-.7.2-1 .2-.6.1-1.2.2-1.7.3-.2 0-.4.1-.5.1h-.1c-.2 0-.3 0-.5.1-.2 0-.4.1-.6.1s-.3 0-.5.1c-.4 0-.8.1-1.1.1H297.1c-.2 0-.4 0-.6-.1-.3 0-.5-.1-.8-.1-1.7-.3-3.4-.6-5-1.1-.1 0-.2-.1-.4-.1-.4-.1-.8-.3-1.2-.4-.1 0-.3-.1-.4-.2-.1 0-.1 0-.2-.1-.3-.1-.6-.2-.8-.3-.3-.1-.5-.2-.8-.3-.2-.1-.5-.2-.7-.3-.5-.2-.9-.4-1.4-.7-.2-.1-.3-.2-.5-.3-.3-.2-.6-.3-.9-.5-.3-.1-.5-.3-.8-.5-.1-.1-.2-.1-.3-.2-.2-.1-.4-.3-.6-.4-.1 0-.1-.1-.2-.1-.3-.2-.5-.4-.8-.6-.2-.2-.5-.3-.7-.5-.2-.1-.3-.2-.5-.4l-.3-.3-.3-.3c-.2-.1-.3-.3-.5-.4-.2-.2-.4-.3-.6-.5-.3-.2-.5-.5-.8-.7l-.2-.2-.3-.3-.4-.4-.2-.2-.6-.6-.1-.1c-.2-.2-.5-.5-.7-.8-.2-.2-.4-.5-.6-.8l-.1-.1c-.2-.2-.4-.4-.5-.7 0 0 0-.1-.1-.1-.2-.2-.3-.4-.4-.6-.1-.1-.2-.2-.2-.3-.2-.2-.3-.5-.5-.7l13.1-7.6 13.7 17.5c.5.6 1.2.9 1.9.9 4.6 0 9.1-1.1 13.1-3l2.1 4z"/><path class="st4" d="M329.5 366.1l-3.9 2.2c-5.6-8.1-14.9-13-24.8-13-16.6 0-30.1 13.5-30.1 30.1 0 4.5 1 8.9 2.9 12.9l-3.8 2.2s0-.1-.1-.1c-.1-.2-.2-.5-.3-.7-.1-.3-.3-.6-.4-.9s-.2-.5-.3-.8c0-.1-.1-.2-.1-.4-.1-.2-.2-.4-.2-.7v-.1c-.1-.2-.2-.5-.3-.7 0-.1-.1-.2-.1-.3-.1-.2-.1-.4-.2-.6 0-.1-.1-.2-.1-.3-.1-.2-.1-.4-.2-.5 0-.1-.1-.3-.1-.5 0-.1 0-.1-.1-.2-.1-.2-.1-.4-.2-.7-.1-.3-.2-.7-.2-1-.1-.3-.1-.5-.1-.8s-.1-.5-.1-.8c0-.2-.1-.4-.1-.5 0-.2-.1-.4-.1-.6v-.1c0-.2-.1-.5-.1-.8v-.4c0-.2 0-.5-.1-.7v-.2-.8-1.2c0-19.1 15.5-34.6 34.6-34.6h2.3c.4 0 .8.1 1.1.1.2 0 .3 0 .5.1.2 0 .4.1.6.1s.3 0 .5.1h.1c.2 0 .4.1.5.1.6.1 1.2.2 1.7.3.3.1.7.2 1 .2.3.1.7.2 1 .3.1 0 .3.1.4.1.2.1.4.1.6.2.1 0 .2.1.3.1.1 0 .2.1.4.1.2.1.3.1.5.2.4.1.7.3 1.1.4.2.1.3.1.5.2 1.1.5 2.1 1 3.2 1.5l.6.3c.3.1.5.3.8.5.1.1.3.2.4.2.2.1.3.2.5.3.1.1.3.2.4.3.5.4 1.1.7 1.6 1.1.2.2.5.4.7.5 0 0 .1 0 .1.1.3.2.5.4.8.6.3.2.5.5.8.7l.1.1c.2.2.5.4.7.7.3.2.5.5.8.7.2.2.4.4.5.6l.2.2.6.6c.1.1.1.2.2.2.2.2.3.4.5.6 0 .1.1.1.1.2.2.2.4.5.6.7 0 0 0 .1.1.1.2.3.4.5.6.8.1.8.3 1.1.6 1.4-.1 0 0 0 0 0z"/></g></g></svg>