<?xml version="1.0" encoding="utf-8"?>
<!-- Generator: Adobe Illustrator 15.1.0, SVG Export Plug-In  -->
<svg version="1.1" xmlns="http://www.w3.org/2000/svg" xmlns:xlink="http://www.w3.org/1999/xlink" x="0px" y="0px" viewBox="0 0 150 125" enable-background="new 0 0 150 125" xml:space="preserve">
<g>
	<path d="M114.833,90.027c0-3.371-1.916-4.855-4.086-4.855s-4.087,1.484-4.087,4.855c0,3.369,1.917,4.855,4.087,4.855
		S114.833,93.396,114.833,90.027 M103.955,90.027c0-4.967,3.141-7.315,6.792-7.315c3.652,0,6.788,2.349,6.788,7.315
		c0,4.965-3.136,7.313-6.788,7.313C107.096,97.341,103.955,94.992,103.955,90.027 M95.526,82.872h2.672v14.31h-2.672V82.872z
			M150,11.721l-57.37-0.069v45.142H150V125.2H80.734v-11.483l57.509-0.153V68.445H80.876V0L150,0.005V11.721z M78.8,82.872h4.521
		c3.394,0,6.724,2.156,6.724,7.155c0,4.997-3.33,7.154-6.724,7.154H78.8V82.872z M73.15,91.751c0,3.816-2.251,5.59-5.389,5.59
		s-5.374-1.773-5.374-5.59v-8.879h2.67v8.91c0,2.062,0.916,3.101,2.703,3.101c1.801,0,2.703-1.039,2.703-3.101v-8.91h2.686V91.751z
			M33.717,86.607c0-2.171,1.702-3.896,3.941-3.896c1.915,0,3.362,0.958,4.167,2.604l-2.157,1.356c-0.563-1.052-1.158-1.5-2.009-1.5
		c-0.805,0-1.382,0.559-1.382,1.309c0,2.49,6.175,2.19,6.175,6.42c0,2.78-1.865,4.44-4.631,4.44c-2.608,0-4.535-1.806-4.955-3.995
		l2.155-1.34c0.45,1.535,1.288,2.877,2.863,2.877c1.141,0,1.882-0.528,1.882-1.838C39.765,90.695,33.717,91.146,33.717,86.607
			M46.499,85.33v-2.458h10.682v2.458h-4.007v11.852h-2.686V85.33H46.499z M69.117,125.2H0V56.794h57.357V11.652L0,11.721V0h69.122
		v68.445H11.774v45.119h57.343h0.004L69.117,125.2z M87.311,90.027c0-3.801-2.525-4.697-4.842-4.697h-0.997v9.393h0.997
		C84.785,94.723,87.311,93.826,87.311,90.027"/>
</g>
</svg>
